<svg id="eETXQCN4gzo1" xmlns="http://www.w3.org/2000/svg" xmlns:xlink="http://www.w3.org/1999/xlink" viewBox="0 0 1920 1080" shape-rendering="geometricPrecision" text-rendering="geometricPrecision"><path d="M-19.070846,431.856367c11.86629,16.122815,27.145476,55.309899,55.305376,98.232205s115.324792,136.685784,213.654746,137.680886s238.892521-60.47048,276.564239-155.54923-69.534297-163.963744-147.106723-138.059797-95.410403,136.31015-75.596274,170.929978s75.278778,93.872529,99.77392,100.731169c34.293562,9.602198,75.445837-6.858712,104.25243-27.43485s49.38273-49.472307,65.843641-88.298156s32.160773-82.677265,78.189323-82.677265s218.408084,102.843411,211.549371,170.975421-164.785801,106.218139-211.549371,16.46091s176.889798-254.853711,273.435919-212.809434s144.758747,89.364022,247.53365,108.050368s193.857743-42.190182,271.717518-82.677265s415.025361-18.990795,491.905579-9.528297" transform="matrix(1 0 0-1 5.41604 940.371905)" fill="none" stroke="#3f5787" stroke-width="3.84"/></svg>
