<svg id="eY0UfrNZBLX1" xmlns="http://www.w3.org/2000/svg" xmlns:xlink="http://www.w3.org/1999/xlink" viewBox="0 0 1920 1080" shape-rendering="geometricPrecision" text-rendering="geometricPrecision"><path d="M-19.070846,431.856367c11.86629,16.122815,27.145476,55.309899,55.305376,98.232205s115.324792,136.685784,213.654746,137.680886s187.542981-46.748265,202.381013-128.465174-69.534298-163.963743-147.106724-138.059797-77.008239,96.65859-69.532687,145.19897s80.127807,151.54962,119.481113,151.54962s78.658203-27.94391,107.464796-48.520048s85.555825-79.842103,111.043722-119.384457s55.451032-62.246184,82.695628-53.164652s161.200353,79.128843,154.34164,147.260853-164.785801,106.218139-211.549371,16.46091s181.322003-171.284974,326.626515-193.234376s379.875499-10.955014,518.761998,0s415.025361,42.753945,491.905579,52.216444" transform="translate(5.416032 73.303694)" fill="none" stroke="#3f5787" stroke-width="3.84"/></svg>
