<svg id="eGMLEFxwqId1" xmlns="http://www.w3.org/2000/svg" xmlns:xlink="http://www.w3.org/1999/xlink" viewBox="0 0 1920 1080" shape-rendering="geometricPrecision" text-rendering="geometricPrecision"><path d="M-6.85237,466.29527c38.16048,30.52838,64.30158,71.64164,100.27855,103.62117c34.4606,30.63165,76.32376,71.00561,118.66295,90.2507c91.48129,41.58241,262.54268,57.25999,357.66017,30.08356c145.08233-41.45209,60.25561-315.48173-38.44011-290.8078-101.13228,25.28307-50.77404,207.95383-6.68524,264.06685c56.35024,71.71848,235.3292,83.31797,315.87744,61.83844c103.14055-27.50415,199.84517-145.8684,163.7883-254.039-6.46361-19.39083-18.44772-41.12328-36.7688-51.81058-64.32795-37.52464-126.4043,80.57142-116.99164,137.04735c11.76457,70.5874,68.43788,118.62005,128.69081,148.74652c131.37448,65.68724,237.41922,23.89322,350.97493-51.81058c33.47009-22.31339,140.41069-105.8634,162.11699-120.33426c37.00979-24.67319,83.25624-41.12255,125.34819-55.1532c50.3341-16.77803,68.283149-24.751006,120.334259-33.426196c22.34309-3.72385,74.188571-11.095734,96.935941-13.370464c25.51341-2.55134,70.79629,3.65036,93.59331-10.02786c3.05885-1.83531,4.45682-5.57103,6.68524-8.35655" transform="translate(0 0.000001)" fill="none" stroke="#3f5787" stroke-width="3.84"/></svg>
